# Blender v3.1.2 OBJ File: ''
# www.blender.org
mtllib exclamationMark.mtl
o Cube.001
v 0.810821 2.169871 -0.810821
v 0.810821 2.169871 0.810821
v -0.810821 2.169871 -0.810821
v -0.810821 2.169871 0.810821
v 1.285484 13.999023 -1.285484
v 1.285484 13.999023 1.285484
v -1.285484 13.999023 -1.285484
v -1.285484 13.999023 1.285484
v 0.739333 0.739333 -0.739333
v 0.739333 -0.739333 -0.739333
v 0.739333 0.739333 0.739333
v 0.739333 -0.739333 0.739333
v -0.739333 0.739333 -0.739333
v -0.739333 -0.739333 -0.739333
v -0.739333 0.739333 0.739333
v -0.739333 -0.739333 0.739333
vt 0.360937 0.000000
vt 0.422182 0.905982
vt 0.364715 0.905982
vt 0.000000 0.000000
vt 0.048843 0.905982
vt 0.000677 0.905982
vt 0.911280 0.003014
vt 0.787155 0.127139
vt 0.787155 0.003014
vt 0.227707 0.000000
vt 0.264148 0.905982
vt 0.228384 0.905982
vt 0.718861 0.001550
vt 0.522072 0.198339
vt 0.522072 0.001550
vt 0.106877 0.000000
vt 0.149519 0.905982
vt 0.107555 0.905982
vt 0.421309 0.000000
vt 0.054171 0.000000
vt 0.911280 0.127139
vt 0.266375 0.000000
vt 0.718861 0.198339
vt 0.151747 0.000000
vt 0.901886 0.361219
vt 0.788705 0.474400
vt 0.788705 0.361219
vt 0.542224 0.561244
vt 0.655383 0.448063
vt 0.655383 0.561244
vt 0.542224 0.903888
vt 0.655383 0.790707
vt 0.655383 0.903888
vt 0.900336 0.565861
vt 0.787155 0.679042
vt 0.787155 0.565861
vt 0.542224 0.674425
vt 0.655383 0.674425
vt 0.787155 0.902321
vt 0.900313 0.789140
vt 0.900313 0.902321
vt 0.901886 0.474400
vt 0.542224 0.448063
vt 0.542224 0.790707
vt 0.900336 0.679042
vt 0.787155 0.789140
vn 0.0000 -0.0401 0.9992
vn 0.9992 -0.0401 0.0000
vn 0.0000 -1.0000 0.0000
vn -0.9992 -0.0401 0.0000
vn 0.0000 1.0000 0.0000
vn 0.0000 -0.0401 -0.9992
vn 0.0000 0.0000 1.0000
vn -1.0000 0.0000 0.0000
vn 1.0000 0.0000 0.0000
vn 0.0000 0.0000 -1.0000
usemtl material
s off
f 6/1/1 4/2/1 2/3/1
f 5/4/2 2/5/2 1/6/2
f 1/7/3 4/8/3 3/9/3
f 8/10/4 3/11/4 4/12/4
f 7/13/5 6/14/5 5/15/5
f 7/16/6 1/17/6 3/18/6
f 6/1/1 8/19/1 4/2/1
f 5/4/2 6/20/2 2/5/2
f 1/7/3 2/21/3 4/8/3
f 8/10/4 7/22/4 3/11/4
f 7/13/5 8/23/5 6/14/5
f 7/16/6 5/24/6 1/17/6
usemtl Material
f 13/25/5 11/26/5 9/27/5
f 11/28/7 16/29/7 12/30/7
f 15/31/8 14/32/8 16/33/8
f 10/34/3 16/35/3 14/36/3
f 9/37/9 12/30/9 10/38/9
f 13/39/10 10/40/10 14/41/10
f 13/25/5 15/42/5 11/26/5
f 11/28/7 15/43/7 16/29/7
f 15/31/8 13/44/8 14/32/8
f 10/34/3 12/45/3 16/35/3
f 9/37/9 11/28/9 12/30/9
f 13/39/10 9/46/10 10/40/10
