# Blender v3.1.2 OBJ File: ''
# www.blender.org
mtllib pipe.mtl
o pipe_円.001
v 0.707107 1.709152 -0.707107
v 0.707107 2.161186 -0.707107
v 0.555570 2.161186 -0.831470
v 0.555570 1.709152 -0.831470
v 0.980785 1.709152 -0.195090
v 0.980785 2.161186 -0.195090
v 0.923880 2.161186 -0.382684
v 0.923879 1.709152 -0.382684
v 0.784551 1.411188 1.174163
v 0.784551 2.161187 1.174163
v 0.540408 2.161187 1.304660
v 0.540408 1.411188 1.304660
v 0.195090 1.709152 -0.980785
v 0.195090 2.161186 -0.980785
v 0.000000 2.161186 -1.000000
v 0.000000 1.709152 -1.000000
v -0.382683 1.709152 0.923880
v -0.382683 2.161186 0.923880
v -0.195090 2.161186 0.980785
v -0.195090 1.709152 0.980785
v 0.000000 2.161186 1.000000
v 0.000000 1.709152 1.000000
v -0.923879 2.161186 -0.382683
v -0.980785 2.161186 -0.195090
v -0.980785 1.709152 -0.195090
v -0.923880 1.709152 -0.382683
v 0.555570 1.709152 0.831470
v 0.555570 2.161186 0.831470
v 0.707107 2.161186 0.707107
v 0.707107 1.709152 0.707107
v 0.382683 2.161186 -0.923880
v 0.382683 1.709152 -0.923880
v 0.275497 1.411188 1.385020
v 0.275497 2.161187 1.385020
v 0.000000 2.161187 1.412154
v 0.000000 1.411188 1.412154
v -0.980785 1.709152 0.195090
v -0.980785 2.161186 0.195090
v -0.923880 2.161186 0.382683
v -0.923880 1.709152 0.382683
v 1.000000 2.161186 0.000000
v 1.000000 1.709152 -0.000000
v 0.831470 2.161186 -0.555570
v 0.831470 1.709152 -0.555570
v -0.195090 1.709152 -0.980785
v -0.195090 2.161186 -0.980785
v -0.382683 2.161186 -0.923880
v -0.382683 1.709152 -0.923880
v -0.707107 1.709152 -0.707107
v -0.707107 2.161186 -0.707107
v -0.831470 2.161186 -0.555570
v -0.831470 1.709152 -0.555570
v -0.275497 1.411188 1.385020
v -0.275497 2.161187 1.385020
v -0.540408 2.161187 1.304660
v -0.540408 1.411188 1.304660
v 1.304660 1.411188 0.540408
v 1.304660 2.161187 0.540408
v 1.174163 2.161187 0.784551
v 1.174163 1.411188 0.784551
v 0.998543 2.161187 0.998544
v 0.998543 1.411188 0.998544
v 1.304660 1.411188 -0.540408
v 1.304660 2.161187 -0.540408
v 1.385020 2.161187 -0.275498
v 1.385020 1.411188 -0.275498
v -1.304660 1.411188 -0.540408
v -1.304660 2.161187 -0.540408
v -1.174163 2.161187 -0.784551
v -1.174163 1.411188 -0.784551
v -1.000000 1.709152 -0.000000
v -1.000000 2.161186 0.000000
v 0.980785 1.709152 0.195090
v 0.980785 2.161186 0.195090
v 0.923880 1.709152 0.382684
v 0.923880 2.161186 0.382684
v 0.831469 1.709152 0.555570
v 0.831470 2.161186 0.555570
v -1.174163 1.411188 0.784550
v -1.174163 2.161187 0.784550
v -1.304660 2.161187 0.540408
v -1.304660 1.411188 0.540408
v 0.000000 1.411187 -1.058117
v -0.206428 1.411187 -1.037785
v -0.275497 1.411188 -1.385020
v 0.000000 1.411188 -1.412154
v -0.206428 1.411187 1.037785
v 0.000000 1.411187 1.058117
v 0.000000 2.161187 -1.412154
v 0.275497 2.161187 -1.385020
v 0.275497 1.411188 -1.385020
v 1.385020 1.411188 0.275498
v 1.385020 2.161187 0.275498
v 1.412154 2.161187 0.000000
v 1.412154 1.411188 0.000000
v -0.555570 2.161186 -0.831470
v -0.555570 1.709152 -0.831470
v 0.540408 2.161187 -1.304660
v 0.540408 1.411188 -1.304660
v 0.382683 1.709152 0.923880
v 0.382683 2.161186 0.923880
v -0.831470 2.161186 0.555570
v -0.831470 1.709152 0.555570
v -0.784550 2.161187 1.174163
v -0.784550 1.411188 1.174163
v -0.555570 2.161186 0.831470
v -0.555570 1.709152 0.831470
v -0.998543 2.161187 0.998544
v -0.998544 1.411188 0.998544
v 0.195090 2.161186 0.980785
v 0.195090 1.709152 0.980785
v 1.174163 1.411188 -0.784550
v 1.174163 2.161187 -0.784550
v 0.998544 1.411188 -0.998543
v 0.998544 2.161187 -0.998543
v -0.707107 2.161186 0.707107
v -0.707107 1.709152 0.707107
v -0.275497 2.161187 -1.385020
v -1.385020 1.411188 0.275498
v -1.385019 2.161187 0.275498
v -1.412154 2.161187 0.000000
v -1.412154 1.411188 0.000000
v 0.784551 2.161187 -1.174163
v 0.784551 1.411188 -1.174163
v -1.385019 2.161187 -0.275498
v -1.385020 1.411188 -0.275498
v -0.998543 2.161187 -0.998544
v -0.998544 1.411188 -0.998544
v -0.784551 2.161187 -1.174163
v -0.784551 1.411188 -1.174163
v -0.540408 1.411188 -1.304660
v -0.540408 2.161187 -1.304660
v 0.206428 1.411187 -1.037785
v 1.037785 1.411187 0.206428
v 1.058117 1.411187 0.000000
v -0.587858 1.411187 -0.879793
v -0.748202 1.411187 -0.748202
v -0.748202 1.411187 0.748202
v -0.587858 1.411187 0.879792
v -0.977573 1.411187 0.404923
v -0.879792 1.411187 0.587858
v 0.748202 1.411187 -0.748202
v 0.587858 1.411187 -0.879793
v 0.404923 1.411187 0.977573
v 0.587858 1.411187 0.879792
v -0.404923 1.411187 0.977573
v 0.879791 1.411187 0.587858
v 0.977573 1.411187 0.404924
v 1.037785 1.411187 -0.206428
v 0.977572 1.411187 -0.404925
v 0.879793 1.411187 -0.587858
v 0.404923 1.411187 -0.977573
v -0.404923 1.411187 -0.977573
v 0.748202 1.411187 0.748202
v -1.037785 1.411187 -0.206428
v -1.058117 1.411187 0.000000
v -1.037785 1.411187 0.206428
v -0.879792 1.411187 -0.587858
v -0.977573 1.411187 -0.404923
v 0.206428 1.411187 1.037785
v -0.748202 -0.137904 -0.748202
v -0.879792 -0.137904 -0.587858
v 1.058117 -0.137904 -0.000000
v 1.037785 -0.137904 -0.206428
v -0.977573 -0.137904 0.404923
v -0.879792 -0.137904 0.587858
v 0.977573 -0.137904 0.404924
v 1.037785 -0.137904 0.206428
v -0.748202 -0.137904 0.748202
v -0.587858 -0.137904 0.879792
v 0.977572 -0.137904 -0.404925
v 0.879793 -0.137904 -0.587858
v -0.404923 -0.137904 -0.977573
v -0.587858 -0.137904 -0.879793
v -0.404923 -0.137903 0.977573
v -0.206428 -0.137904 -1.037785
v -0.206428 -0.137903 1.037785
v 0.748202 -0.137904 -0.748202
v 0.748202 -0.137904 0.748202
v 0.879791 -0.137904 0.587858
v 0.404923 -0.137904 -0.977573
v 0.206428 -0.137904 -1.037785
v 0.587858 -0.137904 -0.879793
v -0.977573 -0.137904 -0.404923
v -1.037785 -0.137904 -0.206428
v 0.000000 -0.137903 1.058117
v 0.206428 -0.137903 1.037785
v 0.000000 -0.137904 -1.058117
v -1.058117 -0.137904 -0.000000
v 0.404923 -0.137903 0.977573
v 0.587858 -0.137904 0.879792
v -1.037785 -0.137904 0.206428
v 0.000000 1.709152 -0.000000
v 0.000000 -0.137904 -0.000000
vt 0.011483 0.065086
vt 0.165709 0.079422
vt 0.011483 0.079422
vt 0.011483 0.022077
vt 0.165709 0.036414
vt 0.011483 0.036414
vt 0.194158 0.394821
vt 0.245926 0.380485
vt 0.245926 0.394821
vt 0.165709 0.108095
vt 0.011483 0.122431
vt 0.011483 0.108095
vt 0.165709 0.323139
vt 0.011483 0.337476
vt 0.011483 0.323139
vt 0.165709 0.337476
vt 0.011483 0.351812
vt 0.165709 0.208449
vt 0.011483 0.222785
vt 0.011483 0.208449
vt 0.011483 0.394821
vt 0.165709 0.409157
vt 0.011483 0.409157
vt 0.011483 0.093759
vt 0.165709 0.093759
vt 0.194158 0.366148
vt 0.245926 0.351812
vt 0.245926 0.366148
vt 0.165709 0.251458
vt 0.011483 0.265794
vt 0.011483 0.251458
vt 0.165709 0.022077
vt 0.011483 0.007741
vt 0.165709 0.007741
vt 0.165709 0.050750
vt 0.011483 0.050750
vt 0.165709 0.136768
vt 0.011483 0.151104
vt 0.011483 0.136768
vt 0.165709 0.122431
vt 0.165709 0.179776
vt 0.011483 0.194113
vt 0.011483 0.179776
vt 0.194158 0.337476
vt 0.245926 0.323139
vt 0.245926 0.337476
vt 0.194158 0.437830
vt 0.245926 0.423493
vt 0.245926 0.437830
vt 0.194158 0.423493
vt 0.245926 0.409157
vt 0.194158 0.036414
vt 0.245926 0.022077
vt 0.245926 0.036414
vt 0.194158 0.208449
vt 0.245926 0.194113
vt 0.245926 0.208449
vt 0.165709 0.237122
vt 0.011483 0.237122
vt 0.011483 0.452166
vt 0.165709 0.466502
vt 0.011483 0.466502
vt 0.011483 0.437830
vt 0.165709 0.452166
vt 0.165709 0.423493
vt 0.011483 0.423493
vt 0.194158 0.280130
vt 0.245926 0.265794
vt 0.245926 0.280130
vt 0.165709 0.065086
vt 0.270363 0.122431
vt 0.245926 0.136768
vt 0.245926 0.122431
vt 0.270363 0.351812
vt 0.194158 0.122431
vt 0.245926 0.108095
vt 0.194158 0.452166
vt 0.245926 0.452166
vt 0.165709 0.194113
vt 0.194158 0.022077
vt 0.245926 0.007741
vt 0.165709 0.151104
vt 0.011483 0.165440
vt 0.194158 0.108095
vt 0.245926 0.093759
vt 0.011483 0.380485
vt 0.165709 0.394821
vt 0.165709 0.265794
vt 0.011483 0.280130
vt 0.165709 0.165440
vt 0.194158 0.323139
vt 0.245926 0.308803
vt 0.165709 0.222785
vt 0.165709 0.308803
vt 0.011483 0.308803
vt 0.194158 0.294467
vt 0.245926 0.294467
vt 0.165709 0.366148
vt 0.011483 0.366148
vt 0.194158 0.050750
vt 0.245926 0.050750
vt 0.194158 0.065086
vt 0.245926 0.065086
vt 0.165709 0.280130
vt 0.011483 0.294467
vt 0.194158 0.136768
vt 0.194158 0.251458
vt 0.245926 0.237122
vt 0.245926 0.251458
vt 0.194158 0.409157
vt 0.194158 0.093759
vt 0.245926 0.079422
vt 0.194158 0.265794
vt 0.165709 0.380485
vt 0.194158 0.237122
vt 0.245926 0.222785
vt 0.194158 0.222785
vt 0.194158 0.380485
vt 0.194158 0.194113
vt 0.245926 0.179776
vt 0.194158 0.079422
vt 0.194158 0.179776
vt 0.245926 0.165440
vt 0.194158 0.466502
vt 0.245926 0.466502
vt 0.194158 0.151104
vt 0.245926 0.151104
vt 0.194158 0.165440
vt 0.194158 0.351812
vt 0.270363 0.466502
vt 0.270363 0.179776
vt 0.270363 0.294467
vt 0.270363 0.280130
vt 0.270363 0.265794
vt 0.270363 0.065086
vt 0.270363 0.394821
vt 0.270363 0.323139
vt 0.270363 0.437830
vt 0.270363 0.423493
vt 0.270363 0.022077
vt 0.270363 0.036414
vt 0.165709 0.351812
vt 0.194158 0.308803
vt 0.270363 0.308803
vt 0.270363 0.093759
vt 0.270363 0.151104
vt 0.270363 0.079422
vt 0.270363 0.409157
vt 0.270363 0.237122
vt 0.165709 0.294467
vt 0.270363 0.165440
vt 0.270363 0.050750
vt 0.270363 0.007741
vt 0.194158 0.007741
vt 0.270363 0.208449
vt 0.270363 0.380485
vt 0.270363 0.194113
vt 0.165709 0.437830
vt 0.377288 0.194113
vt 0.377288 0.022077
vt 0.377288 0.280130
vt 0.377288 0.452166
vt 0.270363 0.452166
vt 0.377288 0.308803
vt 0.377288 0.036414
vt 0.377288 0.294467
vt 0.377288 0.050750
vt 0.377288 0.165440
vt 0.377288 0.323139
vt 0.270363 0.136768
vt 0.377288 0.151104
vt 0.377288 0.337476
vt 0.270363 0.337476
vt 0.377288 0.065086
vt 0.377288 0.179776
vt 0.377288 0.423493
vt 0.377288 0.108095
vt 0.270363 0.108095
vt 0.377288 0.093759
vt 0.377288 0.222785
vt 0.270363 0.222785
vt 0.377288 0.437830
vt 0.377288 0.208449
vt 0.377288 0.366148
vt 0.270363 0.366148
vt 0.377288 0.351812
vt 0.377288 0.122431
vt 0.377288 0.237122
vt 0.377288 0.380485
vt 0.377288 0.394821
vt 0.377288 0.251458
vt 0.270363 0.251458
vt 0.377288 0.136768
vt 0.377288 0.466502
vt 0.377288 0.265794
vt 0.377288 0.079422
vt 0.377288 0.409157
vt 0.448838 0.452334
vt 0.465957 0.435215
vt 0.544304 0.530680
vt 0.448838 0.609027
vt 0.435388 0.588897
vt 0.486087 0.421764
vt 0.508454 0.412500
vt 0.556409 0.653584
vt 0.532199 0.653584
vt 0.426123 0.566530
vt 0.421400 0.542785
vt 0.508454 0.648861
vt 0.486087 0.639596
vt 0.639769 0.452334
vt 0.653220 0.472464
vt 0.421400 0.518575
vt 0.426123 0.494830
vt 0.580153 0.648861
vt 0.622650 0.626146
vt 0.602520 0.639596
vt 0.662484 0.566530
vt 0.653220 0.588897
vt 0.662484 0.494831
vt 0.532199 0.407777
vt 0.556409 0.407777
vt 0.580154 0.412500
vt 0.602521 0.421765
vt 0.435388 0.472463
vt 0.622650 0.435215
vt 0.667207 0.542785
vt 0.465957 0.626146
vt 0.667207 0.518575
vt 0.639769 0.609027
vt 0.681640 0.029980
vt 0.709355 0.048498
vt 0.601487 0.179936
vt 0.521333 0.029980
vt 0.552128 0.017224
vt 0.650845 0.017224
vt 0.470049 0.287804
vt 0.451531 0.260089
vt 0.584820 0.010721
vt 0.618152 0.010721
vt 0.764198 0.130577
vt 0.770701 0.163269
vt 0.438775 0.229294
vt 0.770701 0.196601
vt 0.432272 0.196602
vt 0.493619 0.311374
vt 0.751443 0.260089
vt 0.732925 0.287804
vt 0.451530 0.099783
vt 0.470049 0.072068
vt 0.432272 0.163270
vt 0.438775 0.130578
vt 0.709355 0.311373
vt 0.521334 0.329892
vt 0.764199 0.229293
vt 0.681640 0.329892
vt 0.732924 0.072067
vt 0.751443 0.099782
vt 0.584821 0.349150
vt 0.552129 0.342648
vt 0.618153 0.349150
vt 0.650845 0.342647
vt 0.493618 0.048498
vt 0.377288 0.007741
vn -0.7071 -0.0000 0.7071
vn -0.5556 -0.0000 0.8315
vn -0.9808 0.0000 0.1951
vn -0.9239 0.0000 0.3827
vn 0.5556 -0.0000 0.8315
vn 0.3827 -0.0000 0.9239
vn -0.1951 -0.0000 0.9808
vn -0.0000 -0.0000 1.0000
vn 0.3827 0.0000 -0.9239
vn 0.1951 0.0000 -0.9808
vn 0.0000 0.0000 -1.0000
vn 0.9239 -0.0000 0.3827
vn 0.9808 -0.0000 0.1951
vn -0.5556 0.0000 -0.8315
vn -0.7071 0.0000 -0.7071
vn -0.3827 -0.0000 0.9239
vn 0.1951 -0.0000 0.9808
vn 0.9808 0.0000 -0.1951
vn 0.9239 0.0000 -0.3827
vn -1.0000 -0.0000 0.0000
vn -0.8315 0.0000 0.5556
vn 0.7071 -0.0000 0.7071
vn 0.8315 -0.0000 0.5556
vn -0.9239 0.0000 -0.3827
vn -0.8315 0.0000 -0.5556
vn 1.0000 0.0000 -0.0000
vn -0.9808 0.0000 -0.1951
vn 0.0000 -1.0000 -0.0000
vn -0.3827 0.0000 -0.9239
vn 0.8315 0.0000 -0.5556
vn 0.5556 0.0000 -0.8315
vn -0.1951 0.0000 -0.9808
vn 0.7071 0.0000 -0.7071
vn 0.0000 1.0000 0.0000
usemtl Material.002
s 1
f 1/1/1 3/2/2 4/3/2
f 5/4/3 7/5/4 8/6/4
f 10/7/5 12/8/6 9/9/5
f 14/10/7 16/11/8 13/12/7
f 18/13/9 20/14/10 17/15/9
f 19/16/10 22/17/11 20/14/10
f 23/18/12 25/19/13 26/20/12
f 27/21/14 29/22/15 30/23/15
f 14/10/7 32/24/16 31/25/16
f 34/26/17 36/27/8 33/28/17
f 38/29/18 40/30/19 37/31/18
f 6/32/3 42/33/20 41/34/20
f 8/6/4 43/35/21 44/36/21
f 46/37/17 48/38/6 45/39/17
f 46/37/17 16/11/8 15/40/8
f 50/41/22 52/42/23 49/43/22
f 54/44/7 56/45/16 53/46/7
f 58/47/12 60/48/23 57/49/12
f 59/50/23 62/51/22 60/48/23
f 64/52/19 66/53/18 63/54/19
f 68/55/24 70/56/25 67/57/24
f 72/58/26 37/31/18 71/59/26
f 73/60/27 41/61/20 42/62/20
f 75/63/24 74/64/27 73/60/27
f 78/65/25 75/63/24 77/66/25
f 4/3/2 31/25/16 32/24/16
f 80/67/21 82/68/4 79/69/21
f 2/70/1 44/36/21 43/35/21
f 83/71/28 85/72/28 86/73/28
f 53/46/28 88/74/28 36/27/28
f 89/75/11 91/76/10 86/73/11
f 93/77/13 57/49/12 92/78/13
f 51/79/23 26/20/12 52/42/23
f 65/80/18 95/81/26 66/53/18
f 47/82/6 97/83/5 48/38/6
f 90/84/10 99/85/9 91/76/10
f 100/86/29 28/87/14 27/21/14
f 29/22/15 77/66/25 30/23/15
f 39/88/19 103/89/30 40/30/19
f 96/90/5 49/43/22 97/83/5
f 55/91/16 105/92/2 56/45/16
f 24/93/13 71/59/26 25/19/13
f 106/94/31 17/15/9 107/95/31
f 105/92/2 108/96/1 109/97/1
f 22/17/11 110/98/32 111/99/32
f 113/100/30 63/54/19 112/101/30
f 115/102/33 112/101/30 114/103/33
f 102/104/30 117/105/33 103/89/30
f 118/106/32 86/73/11 85/72/32
f 109/97/1 80/67/21 79/69/21
f 120/107/3 122/108/20 119/109/3
f 61/110/22 9/9/5 62/51/22
f 98/111/9 124/112/31 99/85/9
f 81/113/4 119/109/3 82/68/4
f 111/99/32 101/114/29 100/86/29
f 121/115/20 126/116/27 122/108/20
f 125/117/27 67/57/24 126/116/27
f 11/118/6 33/28/17 12/8/6
f 69/119/25 128/120/15 70/56/25
f 123/121/31 114/103/33 124/112/31
f 127/122/15 130/123/14 128/120/15
f 94/124/26 92/78/13 95/125/26
f 132/126/29 85/72/32 131/127/29
f 129/128/14 131/127/29 130/123/14
f 35/129/8 53/46/7 36/27/8
f 91/76/28 83/71/28 86/73/28
f 118/106/34 15/40/34 89/75/34
f 92/78/28 135/130/28 95/125/28
f 130/123/28 137/131/28 128/120/28
f 138/132/28 105/92/28 109/97/28
f 141/133/28 82/68/28 140/134/28
f 142/135/28 124/112/28 114/103/28
f 12/8/28 145/136/28 9/9/28
f 54/44/34 18/13/34 55/91/34
f 39/88/34 120/107/34 81/113/34
f 146/137/28 53/46/28 56/45/28
f 148/138/28 60/48/28 147/139/28
f 149/140/28 63/54/28 66/53/28
f 123/121/34 2/70/34 115/102/34
f 150/141/28 112/101/28 63/54/28
f 34/26/34 21/142/34 35/129/34
f 90/84/34 31/25/34 98/111/34
f 72/58/34 125/117/34 121/115/34
f 29/22/34 59/50/34 78/65/34
f 18/13/34 104/143/34 55/91/34
f 94/124/34 74/64/34 93/77/34
f 2/70/34 113/100/34 115/102/34
f 146/137/28 105/92/28 139/144/28
f 152/145/28 91/76/28 99/85/28
f 15/40/34 90/84/34 89/75/34
f 85/72/28 153/146/28 131/127/28
f 143/147/28 99/85/28 124/112/28
f 9/9/28 154/148/28 62/51/28
f 50/41/34 69/119/34 51/79/34
f 120/107/34 72/58/34 121/115/34
f 148/138/28 92/78/28 57/49/28
f 126/116/28 156/149/28 122/108/28
f 156/149/28 119/109/28 122/108/28
f 7/5/34 65/80/34 64/52/34
f 51/79/34 68/55/34 23/18/34
f 116/150/34 80/67/34 108/96/34
f 127/122/34 96/90/34 129/128/34
f 131/127/28 136/151/28 130/123/28
f 47/82/34 118/106/34 132/126/34
f 21/142/34 54/44/34 35/129/34
f 101/114/34 34/26/34 11/118/34
f 142/135/28 112/101/28 151/152/28
f 138/132/28 79/69/28 141/133/28
f 28/87/34 11/118/34 10/7/34
f 125/117/34 23/18/34 68/55/34
f 7/5/34 113/100/34 43/35/34
f 135/153/28 66/53/28 95/81/28
f 94/154/34 6/32/34 41/34/34
f 119/109/28 140/134/28 82/68/28
f 96/90/34 132/126/34 129/128/34
f 39/88/34 80/67/34 102/104/34
f 137/131/28 70/56/28 128/120/28
f 159/155/28 126/116/28 67/57/28
f 88/74/28 33/28/28 36/27/28
f 33/28/28 144/156/28 12/8/28
f 158/157/28 67/57/28 70/56/28
f 98/111/34 3/2/34 123/121/34
f 104/143/34 116/150/34 108/96/34
f 154/148/28 60/48/28 62/51/28
f 93/77/34 76/158/34 58/47/34
f 78/65/34 58/47/34 76/158/34
f 61/110/34 28/87/34 10/7/34
f 137/131/15 162/159/25 158/157/25
f 135/153/26 164/160/18 149/140/18
f 140/134/4 166/161/21 141/133/21
f 148/138/12 168/162/13 134/163/13
f 138/132/1 170/164/2 139/144/2
f 149/140/18 171/165/19 150/141/19
f 141/133/21 169/166/1 138/132/1
f 150/141/19 172/167/30 151/152/30
f 153/146/29 174/168/14 136/151/14
f 139/144/2 175/169/16 146/137/16
f 84/170/32 173/171/29 153/146/29
f 146/137/16 177/172/7 87/173/7
f 151/152/30 178/174/33 142/135/33
f 136/151/14 161/175/15 137/131/15
f 154/148/22 180/176/23 147/139/23
f 152/145/9 182/177/10 133/178/10
f 143/147/31 181/179/9 152/145/9
f 159/155/24 185/180/27 155/181/27
f 147/139/23 167/182/12 148/138/12
f 158/157/25 184/183/24 159/155/24
f 88/74/8 187/184/17 160/185/17
f 87/173/7 186/186/8 88/74/8
f 133/178/10 188/187/11 83/71/11
f 155/181/27 189/188/20 156/149/20
f 145/136/5 190/189/6 191/190/5
f 156/149/20 192/191/3 157/192/3
f 83/71/11 176/193/32 84/170/32
f 160/185/17 190/189/6 144/156/6
f 134/163/13 163/194/26 135/130/26
f 157/192/3 165/195/4 140/134/4
f 142/135/33 183/196/31 143/147/31
f 145/136/5 179/197/22 154/148/22
f 27/198/34 30/199/34 193/200/34
f 117/201/34 107/202/34 193/200/34
f 77/203/34 75/204/34 193/200/34
f 25/205/34 71/206/34 193/200/34
f 30/199/34 77/203/34 193/200/34
f 17/207/34 20/208/34 193/200/34
f 37/209/34 40/210/34 193/200/34
f 1/211/34 4/212/34 193/200/34
f 22/213/34 111/214/34 193/200/34
f 26/215/34 25/205/34 193/200/34
f 49/216/34 52/217/34 193/200/34
f 45/218/34 48/219/34 193/200/34
f 71/206/34 37/209/34 193/200/34
f 4/212/34 32/220/34 193/200/34
f 73/221/34 42/222/34 193/200/34
f 5/223/34 8/224/34 193/200/34
f 111/214/34 100/225/34 193/200/34
f 44/226/34 1/211/34 193/200/34
f 52/217/34 26/215/34 193/200/34
f 42/222/34 5/223/34 193/200/34
f 16/227/34 45/218/34 193/200/34
f 40/210/34 103/228/34 193/200/34
f 13/229/34 16/227/34 193/200/34
f 48/219/34 97/230/34 193/200/34
f 20/208/34 22/213/34 193/200/34
f 8/224/34 44/226/34 193/200/34
f 32/220/34 13/229/34 193/200/34
f 97/230/34 49/216/34 193/200/34
f 103/228/34 117/201/34 193/200/34
f 100/225/34 27/198/34 193/200/34
f 75/204/34 73/221/34 193/200/34
f 107/202/34 17/207/34 193/200/34
f 180/231/28 179/232/28 194/233/28
f 171/234/28 164/235/28 194/233/28
f 167/236/28 180/231/28 194/233/28
f 174/237/28 173/238/28 194/233/28
f 163/239/28 168/240/28 194/233/28
f 187/241/28 186/242/28 194/233/28
f 173/238/28 176/243/28 194/233/28
f 186/242/28 177/244/28 194/233/28
f 176/243/28 188/245/28 194/233/28
f 161/246/28 174/237/28 194/233/28
f 170/247/28 169/248/28 194/233/28
f 183/249/28 178/250/28 194/233/28
f 182/251/28 181/252/28 194/233/28
f 169/248/28 166/253/28 194/233/28
f 162/254/28 161/246/28 194/233/28
f 181/252/28 183/249/28 194/233/28
f 175/255/28 170/247/28 194/233/28
f 166/253/28 165/256/28 194/233/28
f 188/245/28 182/251/28 194/233/28
f 177/244/28 175/255/28 194/233/28
f 191/257/28 190/258/28 194/233/28
f 185/259/28 184/260/28 194/233/28
f 190/258/28 187/241/28 194/233/28
f 184/260/28 162/254/28 194/233/28
f 179/232/28 191/257/28 194/233/28
f 189/261/28 185/259/28 194/233/28
f 168/240/28 167/236/28 194/233/28
f 192/262/28 189/261/28 194/233/28
f 172/263/28 171/234/28 194/233/28
f 165/256/28 192/262/28 194/233/28
f 178/250/28 172/263/28 194/233/28
f 164/235/28 163/239/28 194/233/28
f 116/150/33 107/95/31 117/105/33
f 1/1/1 2/70/1 3/2/2
f 5/4/3 6/32/3 7/5/4
f 10/7/5 11/118/6 12/8/6
f 14/10/7 15/40/8 16/11/8
f 18/13/9 19/16/10 20/14/10
f 19/16/10 21/142/11 22/17/11
f 23/18/12 24/93/13 25/19/13
f 27/21/14 28/87/14 29/22/15
f 14/10/7 13/12/7 32/24/16
f 34/26/17 35/129/8 36/27/8
f 38/29/18 39/88/19 40/30/19
f 6/32/3 5/4/3 42/33/20
f 8/6/4 7/5/4 43/35/21
f 46/37/17 47/82/6 48/38/6
f 46/37/17 45/39/17 16/11/8
f 50/41/22 51/79/23 52/42/23
f 54/44/7 55/91/16 56/45/16
f 58/47/12 59/50/23 60/48/23
f 59/50/23 61/110/22 62/51/22
f 64/52/19 65/80/18 66/53/18
f 68/55/24 69/119/25 70/56/25
f 72/58/26 38/29/18 37/31/18
f 73/60/27 74/64/27 41/61/20
f 75/63/24 76/158/24 74/64/27
f 78/65/25 76/158/24 75/63/24
f 4/3/2 3/2/2 31/25/16
f 80/67/21 81/113/4 82/68/4
f 2/70/1 1/1/1 44/36/21
f 83/71/28 84/170/28 85/72/28
f 53/46/28 87/173/28 88/74/28
f 89/75/11 90/84/10 91/76/10
f 93/77/13 58/47/12 57/49/12
f 51/79/23 23/18/12 26/20/12
f 65/80/18 94/154/26 95/81/26
f 47/82/6 96/90/5 97/83/5
f 90/84/10 98/111/9 99/85/9
f 100/86/29 101/114/29 28/87/14
f 29/22/15 78/65/25 77/66/25
f 39/88/19 102/104/30 103/89/30
f 96/90/5 50/41/22 49/43/22
f 55/91/16 104/143/2 105/92/2
f 24/93/13 72/58/26 71/59/26
f 106/94/31 18/13/9 17/15/9
f 105/92/2 104/143/2 108/96/1
f 22/17/11 21/142/11 110/98/32
f 113/100/30 64/52/19 63/54/19
f 115/102/33 113/100/30 112/101/30
f 102/104/30 116/150/33 117/105/33
f 118/106/32 89/75/11 86/73/11
f 109/97/1 108/96/1 80/67/21
f 120/107/3 121/115/20 122/108/20
f 61/110/22 10/7/5 9/9/5
f 98/111/9 123/121/31 124/112/31
f 81/113/4 120/107/3 119/109/3
f 111/99/32 110/98/32 101/114/29
f 121/115/20 125/117/27 126/116/27
f 125/117/27 68/55/24 67/57/24
f 11/118/6 34/26/17 33/28/17
f 69/119/25 127/122/15 128/120/15
f 123/121/31 115/102/33 114/103/33
f 127/122/15 129/128/14 130/123/14
f 94/124/26 93/77/13 92/78/13
f 132/126/29 118/106/32 85/72/32
f 129/128/14 132/126/29 131/127/29
f 35/129/8 54/44/7 53/46/7
f 91/76/28 133/178/28 83/71/28
f 118/106/34 46/37/34 15/40/34
f 92/78/28 134/163/28 135/130/28
f 130/123/28 136/151/28 137/131/28
f 138/132/28 139/144/28 105/92/28
f 141/133/28 79/69/28 82/68/28
f 142/135/28 143/147/28 124/112/28
f 12/8/28 144/156/28 145/136/28
f 54/44/34 19/16/34 18/13/34
f 39/88/34 38/29/34 120/107/34
f 146/137/28 87/173/28 53/46/28
f 148/138/28 57/49/28 60/48/28
f 149/140/28 150/141/28 63/54/28
f 123/121/34 3/2/34 2/70/34
f 150/141/28 151/152/28 112/101/28
f 34/26/34 110/98/34 21/142/34
f 90/84/34 14/10/34 31/25/34
f 72/58/34 24/93/34 125/117/34
f 29/22/34 61/110/34 59/50/34
f 18/13/34 106/94/34 104/143/34
f 94/124/34 41/61/34 74/64/34
f 2/70/34 43/35/34 113/100/34
f 146/137/28 56/45/28 105/92/28
f 152/145/28 133/178/28 91/76/28
f 15/40/34 14/10/34 90/84/34
f 85/72/28 84/170/28 153/146/28
f 143/147/28 152/145/28 99/85/28
f 9/9/28 145/136/28 154/148/28
f 50/41/34 127/122/34 69/119/34
f 120/107/34 38/29/34 72/58/34
f 148/138/28 134/163/28 92/78/28
f 126/116/28 155/181/28 156/149/28
f 156/149/28 157/192/28 119/109/28
f 7/5/34 6/32/34 65/80/34
f 51/79/34 69/119/34 68/55/34
f 116/150/34 102/104/34 80/67/34
f 127/122/34 50/41/34 96/90/34
f 131/127/28 153/146/28 136/151/28
f 47/82/34 46/37/34 118/106/34
f 21/142/34 19/16/34 54/44/34
f 101/114/34 110/98/34 34/26/34
f 142/135/28 114/103/28 112/101/28
f 138/132/28 109/97/28 79/69/28
f 28/87/34 101/114/34 11/118/34
f 125/117/34 24/93/34 23/18/34
f 7/5/34 64/52/34 113/100/34
f 135/153/28 149/140/28 66/53/28
f 94/154/34 65/80/34 6/32/34
f 119/109/28 157/192/28 140/134/28
f 96/90/34 47/82/34 132/126/34
f 39/88/34 81/113/34 80/67/34
f 137/131/28 158/157/28 70/56/28
f 159/155/28 155/181/28 126/116/28
f 88/74/28 160/185/28 33/28/28
f 33/28/28 160/185/28 144/156/28
f 158/157/28 159/155/28 67/57/28
f 98/111/34 31/25/34 3/2/34
f 104/143/34 106/94/34 116/150/34
f 154/148/28 147/139/28 60/48/28
f 93/77/34 74/64/34 76/158/34
f 78/65/34 59/50/34 58/47/34
f 61/110/34 29/22/34 28/87/34
f 137/131/15 161/175/15 162/159/25
f 135/153/26 163/264/26 164/160/18
f 140/134/4 165/195/4 166/161/21
f 148/138/12 167/182/12 168/162/13
f 138/132/1 169/166/1 170/164/2
f 149/140/18 164/160/18 171/165/19
f 141/133/21 166/161/21 169/166/1
f 150/141/19 171/165/19 172/167/30
f 153/146/29 173/171/29 174/168/14
f 139/144/2 170/164/2 175/169/16
f 84/170/32 176/193/32 173/171/29
f 146/137/16 175/169/16 177/172/7
f 151/152/30 172/167/30 178/174/33
f 136/151/14 174/168/14 161/175/15
f 154/148/22 179/197/22 180/176/23
f 152/145/9 181/179/9 182/177/10
f 143/147/31 183/196/31 181/179/9
f 159/155/24 184/183/24 185/180/27
f 147/139/23 180/176/23 167/182/12
f 158/157/25 162/159/25 184/183/24
f 88/74/8 186/186/8 187/184/17
f 87/173/7 177/172/7 186/186/8
f 133/178/10 182/177/10 188/187/11
f 155/181/27 185/180/27 189/188/20
f 145/136/5 144/156/6 190/189/6
f 156/149/20 189/188/20 192/191/3
f 83/71/11 188/187/11 176/193/32
f 160/185/17 187/184/17 190/189/6
f 134/163/13 168/162/13 163/194/26
f 157/192/3 192/191/3 165/195/4
f 142/135/33 178/174/33 183/196/31
f 145/136/5 191/190/5 179/197/22
f 116/150/33 106/94/31 107/95/31
