# Blender v3.1.2 OBJ File: ''
# www.blender.org
mtllib lolP.mtl
o Cube.001
v 0.000000 1.000000 -1.000000
v -1.000000 1.000000 1.000000
v 0.000000 -0.015422 2.306481
v -1.000000 -1.000000 1.000000
v 0.000000 -1.000000 1.000000
v -1.000000 -1.000000 -1.000000
v 1.000000 -1.000000 -1.000000
v 0.000000 -1.000000 -1.000000
v 1.000000 1.000000 -1.000000
v 1.000000 -1.000000 1.000000
v -1.000000 1.000000 -1.000000
v 1.000000 1.000000 1.000000
vt 0.750000 0.500000
vt 0.875000 0.750000
vt 0.750000 0.750000
vt 0.625000 0.875000
vt 0.375000 1.000000
vt 0.375000 0.875000
vt 0.625000 0.000000
vt 0.375000 0.250000
vt 0.375000 0.000000
vt 0.375000 0.500000
vt 0.250000 0.750000
vt 0.250000 0.500000
vt 0.625000 0.500000
vt 0.375000 0.750000
vt 0.625000 0.375000
vt 0.375000 0.375000
vt 0.625000 0.250000
vt 0.125000 0.750000
vt 0.125000 0.500000
vt 0.625000 0.750000
vt 0.875000 0.500000
vt 0.625000 1.000000
vn 0.5063 0.8244 0.2532
vn 0.0000 -0.7986 0.6018
vn -1.0000 -0.0000 0.0000
vn 0.0000 -1.0000 0.0000
vn 1.0000 -0.0000 0.0000
vn 0.0000 -0.0000 -1.0000
vn 0.0000 1.0000 -0.0000
vn -0.7941 0.0000 0.6078
vn 0.7941 0.0000 0.6078
vn -0.5063 0.8244 0.2532
usemtl Material.001
s 1
f 1/1/1 2/2/1 3/3/1
f 3/4/2 4/5/2 5/6/2
f 2/7/3 6/8/3 4/9/3
f 7/10/4 5/11/4 8/12/4
f 9/13/5 10/14/5 7/10/5
f 1/15/6 7/10/6 8/16/6
f 11/17/6 8/16/6 6/8/6
f 8/12/4 4/18/4 6/19/4
f 10/14/2 3/4/2 5/6/2
f 1/1/7 12/20/7 9/13/7
f 1/1/7 11/21/7 2/2/7
f 3/4/8 2/22/8 4/5/8
f 2/7/3 11/17/3 6/8/3
f 7/10/4 10/14/4 5/11/4
f 9/13/5 12/20/5 10/14/5
f 1/15/6 9/13/6 7/10/6
f 11/17/6 1/15/6 8/16/6
f 8/12/4 5/11/4 4/18/4
f 10/14/9 12/20/9 3/4/9
f 1/1/10 3/3/10 12/20/10
